<?xml version="1.0" encoding="UTF-8" standalone="no"?><svg xmlns="http://www.w3.org/2000/svg" xmlns:xlink="http://www.w3.org/1999/xlink" contentStyleType="text/css" height="1823px" preserveAspectRatio="none" style="width:513px;height:1823px;background:#FFFFFF;" version="1.1" viewBox="0 0 513 1823" width="513px" zoomAndPan="magnify"><defs/><g><rect fill="#87CEFA" height="36.2969" rx="12.5" ry="12.5" style="stroke:#181818;stroke-width:1.5;" width="100" x="10" y="892.6016"/><text fill="#000000" font-family="sans-serif" font-size="14" lengthAdjust="spacing" textLength="80" x="20" y="915.5967">Collections</text><rect fill="#87CEFA" height="36.2969" rx="12.5" ry="12.5" style="stroke:#181818;stroke-width:1.5;" width="46" x="160" y="132.5938"/><text fill="#000000" font-family="sans-serif" font-size="14" lengthAdjust="spacing" textLength="26" x="170" y="155.5889">List</text><rect fill="#87CEFA" height="36.2969" rx="12.5" ry="12.5" style="stroke:#181818;stroke-width:1.5;" width="115" x="256" y="20"/><text fill="#000000" font-family="sans-serif" font-size="14" lengthAdjust="spacing" textLength="95" x="266" y="42.9951">ArrayList&lt;E&gt;</text><path d="M206,150.7422 L216,150.7422 C231,150.7422 231,38.1484 246,38.1484 L256,38.1484 " fill="none" style="stroke:#181818;stroke-width:1.0;"/><rect fill="#87CEFA" height="36.2969" rx="12.5" ry="12.5" style="stroke:#181818;stroke-width:1.5;" width="125" x="256" y="76.2969"/><text fill="#000000" font-family="sans-serif" font-size="14" lengthAdjust="spacing" textLength="105" x="266" y="99.292">LinkedList&lt;E&gt;</text><path d="M206,150.7422 L216,150.7422 C231,150.7422 231,94.4453 246,94.4453 L256,94.4453 " fill="none" style="stroke:#181818;stroke-width:1.0;"/><rect fill="#87CEFA" height="36.2969" rx="12.5" ry="12.5" style="stroke:#181818;stroke-width:1.5;" width="212" x="256" y="132.5938"/><text fill="#000000" font-family="sans-serif" font-size="14" lengthAdjust="spacing" textLength="192" x="266" y="155.5889">CopyOnWriteArrayList&lt;E&gt;</text><path d="M206,150.7422 L216,150.7422 C231,150.7422 231,150.7422 246,150.7422 L256,150.7422 " fill="none" style="stroke:#181818;stroke-width:1.0;"/><rect fill="#87CEFA" height="36.2969" rx="12.5" ry="12.5" style="stroke:#181818;stroke-width:1.5;" width="100" x="256" y="188.8906"/><text fill="#000000" font-family="sans-serif" font-size="14" lengthAdjust="spacing" textLength="80" x="266" y="211.8857">Vector&lt;E&gt;</text><path d="M206,150.7422 L216,150.7422 C231,150.7422 231,207.0391 246,207.0391 L256,207.0391 " fill="none" style="stroke:#181818;stroke-width:1.0;"/><rect fill="#87CEFA" height="36.2969" rx="12.5" ry="12.5" style="stroke:#181818;stroke-width:1.5;" width="92" x="256" y="245.1875"/><text fill="#000000" font-family="sans-serif" font-size="14" lengthAdjust="spacing" textLength="72" x="266" y="268.1826">Stack&lt;E&gt;</text><path d="M206,150.7422 L216,150.7422 C231,150.7422 231,263.3359 246,263.3359 L256,263.3359 " fill="none" style="stroke:#181818;stroke-width:1.0;"/><path d="M110,910.75 L120,910.75 C135,910.75 135,150.7422 150,150.7422 L160,150.7422 " fill="none" style="stroke:#181818;stroke-width:1.0;"/><rect fill="#87CEFA" height="36.2969" rx="12.5" ry="12.5" style="stroke:#181818;stroke-width:1.5;" width="65" x="160" y="582.9688"/><text fill="#000000" font-family="sans-serif" font-size="14" lengthAdjust="spacing" textLength="45" x="170" y="605.9639">Queue</text><rect fill="#87CEFA" height="36.2969" rx="12.5" ry="12.5" style="stroke:#181818;stroke-width:1.5;" width="225" x="275" y="301.4844"/><text fill="#000000" font-family="sans-serif" font-size="14" lengthAdjust="spacing" textLength="205" x="285" y="324.4795">ConcurrentLinkedQueue&lt;E&gt;</text><path d="M225,601.1172 L235,601.1172 C250,601.1172 250,319.6328 265,319.6328 L275,319.6328 " fill="none" style="stroke:#181818;stroke-width:1.0;"/><rect fill="#87CEFA" height="36.2969" rx="12.5" ry="12.5" style="stroke:#181818;stroke-width:1.5;" width="149" x="275" y="357.7813"/><text fill="#000000" font-family="sans-serif" font-size="14" lengthAdjust="spacing" textLength="129" x="285" y="380.7764">PriorityQueue&lt;E&gt;</text><path d="M225,601.1172 L235,601.1172 C250,601.1172 250,375.9297 265,375.9297 L275,375.9297 " fill="none" style="stroke:#181818;stroke-width:1.0;"/><rect fill="#87CEFA" height="36.2969" rx="12.5" ry="12.5" style="stroke:#181818;stroke-width:1.5;" width="206" x="275" y="414.0781"/><text fill="#000000" font-family="sans-serif" font-size="14" lengthAdjust="spacing" textLength="186" x="285" y="437.0732">LinkedBlockingQueue&lt;E&gt;</text><path d="M225,601.1172 L235,601.1172 C250,601.1172 250,432.2266 265,432.2266 L275,432.2266 " fill="none" style="stroke:#181818;stroke-width:1.0;"/><rect fill="#87CEFA" height="36.2969" rx="12.5" ry="12.5" style="stroke:#181818;stroke-width:1.5;" width="211" x="275" y="470.375"/><text fill="#000000" font-family="sans-serif" font-size="14" lengthAdjust="spacing" textLength="191" x="285" y="493.3701">PriorityBlockingQueue&lt;E&gt;</text><path d="M225,601.1172 L235,601.1172 C250,601.1172 250,488.5234 265,488.5234 L275,488.5234 " fill="none" style="stroke:#181818;stroke-width:1.0;"/><rect fill="#87CEFA" height="36.2969" rx="12.5" ry="12.5" style="stroke:#181818;stroke-width:1.5;" width="196" x="275" y="526.6719"/><text fill="#000000" font-family="sans-serif" font-size="14" lengthAdjust="spacing" textLength="176" x="285" y="549.667">ArrayBlockingQueue&lt;E&gt;</text><path d="M225,601.1172 L235,601.1172 C250,601.1172 250,544.8203 265,544.8203 L275,544.8203 " fill="none" style="stroke:#181818;stroke-width:1.0;"/><rect fill="#87CEFA" height="36.2969" rx="12.5" ry="12.5" style="stroke:#181818;stroke-width:1.5;" width="136" x="275" y="582.9688"/><text fill="#000000" font-family="sans-serif" font-size="14" lengthAdjust="spacing" textLength="116" x="285" y="605.9639">DelayQueue&lt;E&gt;</text><path d="M225,601.1172 L235,601.1172 C250,601.1172 250,601.1172 265,601.1172 L275,601.1172 " fill="none" style="stroke:#181818;stroke-width:1.0;"/><rect fill="#87CEFA" height="36.2969" rx="12.5" ry="12.5" style="stroke:#181818;stroke-width:1.5;" width="187" x="275" y="639.2656"/><text fill="#000000" font-family="sans-serif" font-size="14" lengthAdjust="spacing" textLength="167" x="285" y="662.2607">SynchronousQueue&lt;E&gt;</text><path d="M225,601.1172 L235,601.1172 C250,601.1172 250,657.4141 265,657.4141 L275,657.4141 " fill="none" style="stroke:#181818;stroke-width:1.0;"/><rect fill="#87CEFA" height="36.2969" rx="12.5" ry="12.5" style="stroke:#181818;stroke-width:1.5;" width="204" x="275" y="695.5625"/><text fill="#000000" font-family="sans-serif" font-size="14" lengthAdjust="spacing" textLength="184" x="285" y="718.5576">LinkedTransferQueue&lt;E&gt;</text><path d="M225,601.1172 L235,601.1172 C250,601.1172 250,713.7109 265,713.7109 L275,713.7109 " fill="none" style="stroke:#181818;stroke-width:1.0;"/><rect fill="#87CEFA" height="36.2969" rx="12.5" ry="12.5" style="stroke:#181818;stroke-width:1.5;" width="135" x="275" y="751.8594"/><text fill="#000000" font-family="sans-serif" font-size="14" lengthAdjust="spacing" textLength="115" x="285" y="774.8545">ArrayDeque&lt;E&gt;</text><path d="M225,601.1172 L235,601.1172 C250,601.1172 250,770.0078 265,770.0078 L275,770.0078 " fill="none" style="stroke:#181818;stroke-width:1.0;"/><rect fill="#87CEFA" height="36.2969" rx="12.5" ry="12.5" style="stroke:#181818;stroke-width:1.5;" width="226" x="275" y="808.1563"/><text fill="#000000" font-family="sans-serif" font-size="14" lengthAdjust="spacing" textLength="206" x="285" y="831.1514">ConcurrentLinkedDeque&lt;E&gt;</text><path d="M225,601.1172 L235,601.1172 C250,601.1172 250,826.3047 265,826.3047 L275,826.3047 " fill="none" style="stroke:#181818;stroke-width:1.0;"/><rect fill="#87CEFA" height="36.2969" rx="12.5" ry="12.5" style="stroke:#181818;stroke-width:1.5;" width="207" x="275" y="864.4531"/><text fill="#000000" font-family="sans-serif" font-size="14" lengthAdjust="spacing" textLength="187" x="285" y="887.4482">LinkedBlockingDeque&lt;E&gt;</text><path d="M225,601.1172 L235,601.1172 C250,601.1172 250,882.6016 265,882.6016 L275,882.6016 " fill="none" style="stroke:#181818;stroke-width:1.0;"/><path d="M110,910.75 L120,910.75 C135,910.75 135,601.1172 150,601.1172 L160,601.1172 " fill="none" style="stroke:#181818;stroke-width:1.0;"/><rect fill="#87CEFA" height="36.2969" rx="12.5" ry="12.5" style="stroke:#181818;stroke-width:1.5;" width="50" x="160" y="1174.0859"/><text fill="#000000" font-family="sans-serif" font-size="14" lengthAdjust="spacing" textLength="30" x="170" y="1197.0811">Map</text><rect fill="#87CEFA" height="36.2969" rx="12.5" ry="12.5" style="stroke:#181818;stroke-width:1.5;" width="130" x="260" y="920.75"/><text fill="#000000" font-family="sans-serif" font-size="14" lengthAdjust="spacing" textLength="110" x="270" y="943.7451">HashMap&lt;K,V&gt;</text><path d="M210,1192.2344 L220,1192.2344 C235,1192.2344 235,938.8984 250,938.8984 L260,938.8984 " fill="none" style="stroke:#181818;stroke-width:1.0;"/><rect fill="#87CEFA" height="36.2969" rx="12.5" ry="12.5" style="stroke:#181818;stroke-width:1.5;" width="180" x="260" y="977.0469"/><text fill="#000000" font-family="sans-serif" font-size="14" lengthAdjust="spacing" textLength="160" x="270" y="1000.042">LinkedHashmap&lt;K,V&gt;</text><path d="M210,1192.2344 L220,1192.2344 C235,1192.2344 235,995.1953 250,995.1953 L260,995.1953 " fill="none" style="stroke:#181818;stroke-width:1.0;"/><rect fill="#87CEFA" height="36.2969" rx="12.5" ry="12.5" style="stroke:#181818;stroke-width:1.5;" width="129" x="260" y="1033.3438"/><text fill="#000000" font-family="sans-serif" font-size="14" lengthAdjust="spacing" textLength="109" x="270" y="1056.3389">TreeMap&lt;K,V&gt;</text><path d="M210,1192.2344 L220,1192.2344 C235,1192.2344 235,1051.4922 250,1051.4922 L260,1051.4922 " fill="none" style="stroke:#181818;stroke-width:1.0;"/><rect fill="#87CEFA" height="36.2969" rx="12.5" ry="12.5" style="stroke:#181818;stroke-width:1.5;" width="211" x="260" y="1089.6406"/><text fill="#000000" font-family="sans-serif" font-size="14" lengthAdjust="spacing" textLength="191" x="270" y="1112.6357">ConcurrentHashMap&lt;K,V&gt;</text><path d="M210,1192.2344 L220,1192.2344 C235,1192.2344 235,1107.7891 250,1107.7891 L260,1107.7891 " fill="none" style="stroke:#181818;stroke-width:1.0;"/><rect fill="#87CEFA" height="36.2969" rx="12.5" ry="12.5" style="stroke:#181818;stroke-width:1.5;" width="235" x="260" y="1145.9375"/><text fill="#000000" font-family="sans-serif" font-size="14" lengthAdjust="spacing" textLength="215" x="270" y="1168.9326">ConcurrentSkipListMap&lt;K,V&gt;</text><path d="M210,1192.2344 L220,1192.2344 C235,1192.2344 235,1164.0859 250,1164.0859 L260,1164.0859 " fill="none" style="stroke:#181818;stroke-width:1.0;"/><rect fill="#87CEFA" height="36.2969" rx="12.5" ry="12.5" style="stroke:#181818;stroke-width:1.5;" width="170" x="260" y="1202.2344"/><text fill="#000000" font-family="sans-serif" font-size="14" lengthAdjust="spacing" textLength="150" x="270" y="1225.2295">WeakHashMap&lt;K,V&gt;</text><path d="M210,1192.2344 L220,1192.2344 C235,1192.2344 235,1220.3828 250,1220.3828 L260,1220.3828 " fill="none" style="stroke:#181818;stroke-width:1.0;"/><rect fill="#87CEFA" height="36.2969" rx="12.5" ry="12.5" style="stroke:#181818;stroke-width:1.5;" width="187" x="260" y="1258.5313"/><text fill="#000000" font-family="sans-serif" font-size="14" lengthAdjust="spacing" textLength="167" x="270" y="1281.5264">IdentityHashMap&lt;K,V&gt;</text><path d="M210,1192.2344 L220,1192.2344 C235,1192.2344 235,1276.6797 250,1276.6797 L260,1276.6797 " fill="none" style="stroke:#181818;stroke-width:1.0;"/><rect fill="#87CEFA" height="36.2969" rx="12.5" ry="12.5" style="stroke:#181818;stroke-width:1.5;" width="136" x="260" y="1314.8281"/><text fill="#000000" font-family="sans-serif" font-size="14" lengthAdjust="spacing" textLength="116" x="270" y="1337.8232">EnumMap&lt;K,V&gt;</text><path d="M210,1192.2344 L220,1192.2344 C235,1192.2344 235,1332.9766 250,1332.9766 L260,1332.9766 " fill="none" style="stroke:#181818;stroke-width:1.0;"/><rect fill="#87CEFA" height="36.2969" rx="12.5" ry="12.5" style="stroke:#181818;stroke-width:1.5;" width="138" x="260" y="1371.125"/><text fill="#000000" font-family="sans-serif" font-size="14" lengthAdjust="spacing" textLength="118" x="270" y="1394.1201">Hashtable&lt;K,V&gt;</text><path d="M210,1192.2344 L220,1192.2344 C235,1192.2344 235,1389.2734 250,1389.2734 L260,1389.2734 " fill="none" style="stroke:#181818;stroke-width:1.0;"/><rect fill="#87CEFA" height="36.2969" rx="12.5" ry="12.5" style="stroke:#181818;stroke-width:1.5;" width="96" x="260" y="1427.4219"/><text fill="#000000" font-family="sans-serif" font-size="14" lengthAdjust="spacing" textLength="76" x="270" y="1450.417">Properties</text><path d="M210,1192.2344 L220,1192.2344 C235,1192.2344 235,1445.5703 250,1445.5703 L260,1445.5703 " fill="none" style="stroke:#181818;stroke-width:1.0;"/><path d="M110,910.75 L120,910.75 C135,910.75 135,1192.2344 150,1192.2344 L160,1192.2344 " fill="none" style="stroke:#181818;stroke-width:1.0;"/><rect fill="#87CEFA" height="36.2969" rx="12.5" ry="12.5" style="stroke:#181818;stroke-width:1.5;" width="45" x="160" y="1624.4609"/><text fill="#000000" font-family="sans-serif" font-size="14" lengthAdjust="spacing" textLength="25" x="170" y="1647.4561">Set</text><rect fill="#87CEFA" height="36.2969" rx="12.5" ry="12.5" style="stroke:#181818;stroke-width:1.5;" width="110" x="255" y="1483.7188"/><text fill="#000000" font-family="sans-serif" font-size="14" lengthAdjust="spacing" textLength="90" x="265" y="1506.7139">HashSet&lt;E&gt;</text><path d="M205,1642.6094 L215,1642.6094 C230,1642.6094 230,1501.8672 245,1501.8672 L255,1501.8672 " fill="none" style="stroke:#181818;stroke-width:1.0;"/><rect fill="#87CEFA" height="36.2969" rx="12.5" ry="12.5" style="stroke:#181818;stroke-width:1.5;" width="158" x="255" y="1540.0156"/><text fill="#000000" font-family="sans-serif" font-size="14" lengthAdjust="spacing" textLength="138" x="265" y="1563.0107">LinkedHashSet&lt;E&gt;</text><path d="M205,1642.6094 L215,1642.6094 C230,1642.6094 230,1558.1641 245,1558.1641 L255,1558.1641 " fill="none" style="stroke:#181818;stroke-width:1.0;"/><rect fill="#87CEFA" height="36.2969" rx="12.5" ry="12.5" style="stroke:#181818;stroke-width:1.5;" width="109" x="255" y="1596.3125"/><text fill="#000000" font-family="sans-serif" font-size="14" lengthAdjust="spacing" textLength="89" x="265" y="1619.3076">TreeSet&lt;E&gt;</text><path d="M205,1642.6094 L215,1642.6094 C230,1642.6094 230,1614.4609 245,1614.4609 L255,1614.4609 " fill="none" style="stroke:#181818;stroke-width:1.0;"/><rect fill="#87CEFA" height="36.2969" rx="12.5" ry="12.5" style="stroke:#181818;stroke-width:1.5;" width="116" x="255" y="1652.6094"/><text fill="#000000" font-family="sans-serif" font-size="14" lengthAdjust="spacing" textLength="96" x="265" y="1675.6045">EnumSet&lt;E&gt;</text><path d="M205,1642.6094 L215,1642.6094 C230,1642.6094 230,1670.7578 245,1670.7578 L255,1670.7578 " fill="none" style="stroke:#181818;stroke-width:1.0;"/><rect fill="#87CEFA" height="36.2969" rx="12.5" ry="12.5" style="stroke:#181818;stroke-width:1.5;" width="220" x="255" y="1708.9063"/><text fill="#000000" font-family="sans-serif" font-size="14" lengthAdjust="spacing" textLength="200" x="265" y="1731.9014">CopyOneWriteArraySet&lt;E&gt;</text><path d="M205,1642.6094 L215,1642.6094 C230,1642.6094 230,1727.0547 245,1727.0547 L255,1727.0547 " fill="none" style="stroke:#181818;stroke-width:1.0;"/><rect fill="#87CEFA" height="36.2969" rx="12.5" ry="12.5" style="stroke:#181818;stroke-width:1.5;" width="215" x="255" y="1765.2031"/><text fill="#000000" font-family="sans-serif" font-size="14" lengthAdjust="spacing" textLength="195" x="265" y="1788.1982">ConcurrentSkipListSet&lt;E&gt;</text><path d="M205,1642.6094 L215,1642.6094 C230,1642.6094 230,1783.3516 245,1783.3516 L255,1783.3516 " fill="none" style="stroke:#181818;stroke-width:1.0;"/><path d="M110,910.75 L120,910.75 C135,910.75 135,1642.6094 150,1642.6094 L160,1642.6094 " fill="none" style="stroke:#181818;stroke-width:1.0;"/><!--MD5=[7548f7833baf684aefdb59acb6632628]
@startmindmap
<style>
mindmapDiagram {
  node {
    BackgroundColor LightSkyBlue
  }
}
</style>

+ Collections
++ List
+++ ArrayList<E>
+++ LinkedList<E>
+++ CopyOnWriteArrayList<E>
+++ Vector<E>
+++ Stack<E>
++ Queue
+++ ConcurrentLinkedQueue<E>
+++ PriorityQueue<E>
+++ LinkedBlockingQueue<E>
+++ PriorityBlockingQueue<E>
+++ ArrayBlockingQueue<E>
+++ DelayQueue<E>
+++ SynchronousQueue<E>
+++ LinkedTransferQueue<E>
+++ ArrayDeque<E>
+++ ConcurrentLinkedDeque<E>
+++ LinkedBlockingDeque<E>
++ Map
+++ HashMap<K,V>
+++ LinkedHashmap<K,V>
+++ TreeMap<K,V>
+++ ConcurrentHashMap<K,V>
+++ ConcurrentSkipListMap<K,V>
+++ WeakHashMap<K,V>
+++ IdentityHashMap<K,V>
+++ EnumMap<K,V>
+++ Hashtable<K,V>
+++ Properties
++ Set
+++ HashSet<E>
+++ LinkedHashSet<E>
+++ TreeSet<E>
+++ EnumSet<E>
+++ CopyOneWriteArraySet<E>
+++ ConcurrentSkipListSet<E>
@endmindmap

PlantUML version 1.2022.7beta2(Unknown compile time)
(GPL source distribution)
Java Runtime: Java(TM) SE Runtime Environment
JVM: Java HotSpot(TM) 64-Bit Server VM
Default Encoding: UTF-8
Language: en
Country: US
--></g></svg>